<?xml version="1.0" encoding="UTF-8"?>
<svg id="Layer_2" data-name="Layer 2" xmlns="http://www.w3.org/2000/svg" xmlns:xlink="http://www.w3.org/1999/xlink" viewBox="0 0 1024 1024">
  <defs>
    <style>
      .cls-1 {
        fill: url(#linear-gradient);
        stroke-width: 0px;
      }
    </style>
    <linearGradient id="linear-gradient" x1="149.96" y1="149.96" x2="874.04" y2="874.04" gradientUnits="userSpaceOnUse">
      <stop offset="0" stop-color="#000082"/>
      <stop offset=".11" stop-color="#003482"/>
      <stop offset=".24" stop-color="#004982"/>
      <stop offset=".34" stop-color="#005582"/>
      <stop offset=".42" stop-color="#005982"/>
      <stop offset=".5" stop-color="#006682"/>
      <stop offset=".6" stop-color="#007d82"/>
      <stop offset=".64" stop-color="#008c82"/>
      <stop offset=".74" stop-color="#00a782"/>
      <stop offset=".95" stop-color="#00ed82"/>
      <stop offset="1" stop-color="#00ff82"/>
    </linearGradient>
  </defs>
  <g id="Layer_1-2" data-name="Layer 1">
    <path class="cls-1" d="M512,0C229.23,0,0,229.23,0,512s229.23,512,512,512,512-229.23,512-512S794.77,0,512,0ZM679.71,516.84c-22.35,82.79-61.66,137.4-81.02,163.78-32.74,44.61-62.95,70.56-71.37,77.63-29.78,25.02-57.95,41.43-78.38,51.76-30.79,15.57-63.5,27.07-97.11,34.53-26.45,5.66-53.32,8.85-80.23,9.21-10.6-.1-12.66-14.75-2.43-17.67,90.54-23.55,168.13-72.97,221.43-144.36,21.83-29.24,35.64-57.87,52.58-98.75,10.92-26.36,27.35-66.73,35.14-122.04,4.32-30.67,11.7-87.18-7.82-153.34-9.41-31.89-18.98-62.7-48.42-82.33-25.32-16.88-53.45-17.56-62.04-17.66-27.05-.33-46.66,8.44-58.98,14.12-11.75,5.41-50.62,23.32-65.88,61.49-4.37,10.92-8.42,27.56-2.82,31.37,1.91,1.3,4.33.7,7.51-.7,4.5-2.56,9.26-4.7,14.25-6.37.13-.05.26-.09.39-.13.59-.19,1.18-.39,1.77-.57.09-.03.18-.06.27-.09,0,0,.27-.08.76-.2,7.22-2.1,14.84-3.24,22.73-3.24,44.97,0,81.42,36.46,81.42,81.42,0,37.34-25.14,68.79-59.42,78.39-.13.04-.28.09-.39.13-37.11,12.03-68.9-9.1-73.36-12.17-3.83-2.64-14.44-10.42-23.84-24.78-33.44-51.12-8.45-119.88-5.02-128.94,20.83-54.96,63.96-82.12,74.67-88.47,55.46-32.91,111.39-24.03,140.41-19.42,57.64,9.15,94.91,36.23,102.41,41.97,9.71,7.43,31.56,23.95,49.95,53.1.94,1.49,8.64,13.8,14.86,28.79,16.64,40.07,19.53,113.77-2.02,193.55ZM771,534.07c-23.16,0-41.93-18.77-41.93-41.93s18.77-41.93,41.93-41.93,41.93,18.77,41.93,41.93-18.77,41.93-41.93,41.93ZM771,335.51c-23.16,0-41.93-18.77-41.93-41.93s18.77-41.93,41.93-41.93,41.93,18.77,41.93,41.93-18.77,41.93-41.93,41.93Z"/>
  </g>
</svg>